<?xml version="1.0" encoding="utf-8"?>
<!-- Generator: Adobe Illustrator 21.1.0, SVG Export Plug-In . SVG Version: 6.00 Build 0)  -->
<svg version="1.1" id="Capa_1" xmlns="http://www.w3.org/2000/svg" xmlns:xlink="http://www.w3.org/1999/xlink" x="0px" y="0px"
	 viewBox="0 0 506.5 111.5" style="enable-background:new 0 0 506.5 111.5;" xml:space="preserve">
<style type="text/css">
	.st0{fill:#FFFFFF;}
</style>
<path class="st0" d="M153.9,80.9c-0.1,0-0.3,0-0.4,0c0,1,0,2.1,0,3.1c0.1,2.7,1.2,4.1,3.9,4c1.8-0.1,3.8-0.7,5.3-1.6
	c2.1-1.2,4.1-1.5,6.4-0.9c6,1.6,12.1,2.7,18.3,2.6c10.9-0.3,19.4-6,22.4-15.4c2.6-8.5,1.9-16.8-1.8-24.9c-6-13.4-22.6-11.5-28.7-4
	c-1.8,2.2-3.1,4.8-4.5,7.3c-0.5,1-0.7,2.4-2.2,1.8c-1.8-0.7-0.4-1.9-0.1-2.7c1.3-4.5,2.9-8.9,4.1-13.4c1.1-4.4,1.5-9,0.2-13.5
	c-1-3.5-2.9-6.3-6.6-7.1c-6.2-1.3-12.1-0.1-17.2,3.5c-4,2.8-5.1,6.3-2.8,10.6c3.1,5.6,3.6,11.6,3.7,17.8
	C154,59,153.9,69.9,153.9,80.9z M314,68.5c0.1,0,0.2,0,0.4,0c-0.2,3-0.3,6-0.5,9c-0.2,5.3,2.5,9,7.6,10c2.1,0.4,4.3,0.7,6.4,0.5
	c4.6-0.3,9.2-1.2,12.8-4.5c2.7-2.5,3-5.4,0.7-8.2c-2.5-3.1-3.4-6.6-3.5-10.4c-0.1-4.7,0-9.4,0-14.1c0-3.5-1.4-6.3-3.8-8.7
	c-6.1-5.7-18.7-5.7-24.5,0.3c-2.4,2.5-3.9,5.9-5.9,8.8c-0.5,0.7-1.4,1.1-2.1,1.6c-0.1-0.8-0.4-1.7-0.2-2.4c0.6-2.1,1.5-4,2-6.1
	c0.6-3.1-0.9-5.4-4-5.9c-6.7-1.2-13,0.1-18.6,3.8c-4.2,2.9-4.7,6-1.8,10.4c1.8,2.8,3.1,5.6,3.3,9c0.2,5.3-0.5,10.2-3.8,14.6
	c-2.5,3.4-1.4,6.9,2.3,9c1,0.6,2,1,3,1.3c6.6,1.9,13.2,2,19.7,0.1c6.4-1.9,7.9-5.5,4.8-11.4c-3.4-6.4-3-13.2-2-20
	c0.4-2.7,2.4-4.3,4.5-4.1c2.6,0.3,3.4,2.3,3.5,4.4C314.2,60.1,314,64.3,314,68.5z M84.6,55.1c0.1,0,0.1,0,0.2,0c0-1.4,0-2.9,0-4.3
	c0-1.5,0.1-3,0.1-4.5c-0.1-4-2-6.9-5.8-7.7c-7-1.5-13.6-0.3-19.5,3.8c-3.7,2.6-4.1,5.7-1.9,9.5c0.4,0.8,1,1.5,1.4,2.2
	c3.2,5.8,2.8,11.9,1.1,18c-0.4,1.6-1.7,2.7-3.6,2.6c-1.9-0.1-3-1.3-3.4-3.1c-0.1-0.5-0.3-0.9-0.3-1.4c-0.2-2.4-0.5-4.8-0.5-7.1
	c0-5.3,0.2-10.6,0.3-16c0.1-4.8-2.1-7.8-6.8-8.7c-6-1.2-11.7-0.1-17.1,2.7c-4.2,2.3-7,6.2-3,11.6c2.1,2.9,3.1,6.1,3,9.8
	c-0.2,4.2-0.1,8.4,0,12.6c0.1,6.7,4,11.3,10.6,12.4c9.6,1.7,19-3.2,23.5-12.4c0.2-0.5,0.4-1.2,0.8-1.5c0.5-0.4,1.2-0.4,1.8-0.6
	c0.1,0.6,0.5,1.2,0.4,1.7c-0.3,1.2-0.9,2.2-1.2,3.4c-1,4.1,0.5,7.8,4,8.8c6.7,2,13.1,1,18.7-3.4c3-2.4,3.2-5.5,0.9-8.7
	c-1.9-2.6-3.1-5.3-3.2-8.6C85,62.8,84.8,58.9,84.6,55.1z M377.4,88.2c2-0.3,5.7-0.7,9.3-1.6c10.3-2.7,17.2-10.7,18-20.7
	c0.9-12-4.2-21.1-14.7-25.2c-9.9-3.9-19.9-3.8-29.7,0.3c-18.1,7.7-17.5,32-5.3,41C361.1,86.6,368.2,88,377.4,88.2z M242,37.5
	c0,0.1-0.1,0.3-0.1,0.4c-3.2,0.2-6.4,0.1-9.5,0.8c-3.7,0.8-7.4,1.9-10.6,3.7c-3.9,2.2-3.8,7.5-0.4,10.4c4.8,4,13,2,15.3-3.8
	c0.6-1.4,0.9-3,1.7-4.1c0.7-0.8,2.1-1.4,3.2-1.4c0.7,0,1.7,1.3,2,2.2c0.4,1.4,0.4,3,0.4,4.5c0.1,6.4,0,6.3-6.3,7.4
	c-6.5,1.1-13,2.6-18.2,7c-4.2,3.6-5.8,8.4-4.3,13.8c1.3,5.1,4.8,8.3,10.1,9.4c8.3,1.7,16.1-2.4,19.6-10.4c0.5-1.2,0.9-2.6,1.5-3.7
	c0.3-0.5,1.3-0.6,1.9-0.9c0.1,0.6,0.5,1.2,0.4,1.8c-0.2,1.1-0.7,2.1-1,3.2c-1.2,4.7,0.1,8,3.6,9.5c5.3,2.2,15.5,0.2,19.6-3.7
	c2.6-2.5,2.7-5,0.9-8.1c-1.4-2.4-3.1-5-3.4-7.7c-0.6-4.4-0.5-9-0.4-13.5c0.2-7.3-2.8-12.2-9.9-14C252.9,38.8,247.4,38.3,242,37.5z
	 M122,64c0.7-3.2,1-6.4,2.1-9.5c1.3-3.6,5-4.1,7.6-1.3c0.8,0.9,1.5,1.9,2.2,2.8c3.8,4.8,10.6,4.2,13.4-1.3c1.7-3.3,1.9-6.9,0.7-10.4
	c-1-3-3.1-4.9-6.2-5.8c-4.4-1.2-8.5-0.3-12.3,2.1c-4.3,2.6-7.1,6.5-8.9,11.1c-0.2,0.6-1.3,0.9-2.1,1.3c-0.1-0.7-0.4-1.5-0.2-2.2
	c0.6-2.1,1.6-4.2,2-6.3c0.6-3.3-0.8-5.5-4.1-6.1c-6.6-1.2-12.8,0.1-18.4,3.8c-4.3,2.8-4.8,6.1-1.9,10.4c1.9,2.8,3.2,5.8,3.3,9.3
	c0.2,5.2-0.6,10-3.8,14.4c-2.6,3.5-1.5,7.3,2.4,9.1c2.7,1.2,5.7,2,8.6,2.4c5.9,0.7,11.8,0.5,17.2-2.2c4.2-2.1,5.1-5.4,2.5-9.2
	C123.4,72.7,122.2,68.7,122,64z M454.5,58.5c2.2-0.5,5.1-0.9,7.8-1.9c3.9-1.5,6.2-4.6,6.7-8.8c0.4-3.8-0.2-7.3-3.6-9.8
	c-5.2-3.7-16.6-3.2-21.4,1c-3.7,3.2-4.2,7.4-3.4,11.8c0.8,4.1,3.9,6,7.7,6.8C450.2,58,452,58.1,454.5,58.5z M454.6,91.8
	c2.1-0.5,5.1-0.8,7.8-1.9c3.9-1.5,6.2-4.6,6.6-8.9c0.4-3.8-0.2-7.3-3.6-9.7c-5.2-3.6-16.4-3.2-21.3,0.9c-3.8,3.2-4.4,7.5-3.5,11.9
	c0.8,4.2,4.1,6.1,8,6.9C450.3,91.4,452.1,91.5,454.6,91.8z M491.7,60.3c0.1-13.7-2.8-22.4-9.5-31.1c-2.2-2.9-4.8-5.5-7.4-8.1
	c-0.4-0.4-1.3-0.3-2-0.4c0.2,0.7,0.4,1.4,0.7,2c0.1,0.3,0.5,0.4,0.7,0.6c19.4,17.6,19.4,41.8,9,59.1c-2.7,4.5-6.2,8.4-9.3,12.7
	c-0.4,0.5-0.4,1.4-0.6,2c0.7-0.2,1.6-0.2,2.2-0.7c1-0.9,1.8-2,2.7-3C486.7,83.1,491.9,71.6,491.7,60.3z"/>
<path d="M153.9,80.9c0-11,0.1-21.9,0-32.9c-0.1-6.1-0.6-12.1-3.7-17.8c-2.3-4.2-1.2-7.7,2.8-10.6c5.2-3.6,11-4.8,17.2-3.5
	c3.8,0.8,5.7,3.6,6.6,7.1c1.2,4.5,0.9,9-0.2,13.5c-1.2,4.5-2.7,9-4.1,13.4c-0.3,0.9-1.7,2,0.1,2.7c1.5,0.6,1.7-0.9,2.2-1.8
	c1.4-2.5,2.7-5.1,4.5-7.3c6-7.5,22.6-9.4,28.7,4c3.6,8,4.4,16.4,1.8,24.9c-3,9.5-11.5,15.2-22.4,15.4c-6.3,0.2-12.3-1-18.3-2.6
	c-2.3-0.6-4.3-0.3-6.4,0.9c-1.6,0.9-3.5,1.5-5.3,1.6c-2.7,0.1-3.8-1.3-3.9-4c0-1,0-2.1,0-3.1C153.6,80.9,153.8,80.9,153.9,80.9z
	 M177.2,66.1c0.1,0,0.2,0,0.3,0c0,1-0.1,2.1,0,3.1c0.3,2.7,0.5,5.4,1,8c0.3,1.6,1.5,2.6,3.2,2.6c1.7,0,2.6-1,3.1-2.5
	c0.3-1,0.6-2,0.6-3c0.2-4.8,0.4-9.7,0.3-14.5c0-2.3-0.5-4.7-1.2-7c-0.3-0.8-1.7-1.7-2.6-1.8c-0.8-0.1-2,0.8-2.5,1.6
	c-0.6,0.8-1,2-1.1,3.1C177.8,59.1,177.5,62.6,177.2,66.1z"/>
<path d="M314,68.5c0-4.2,0.1-8.4-0.1-12.6c-0.1-2.1-0.8-4.2-3.5-4.4c-2.1-0.2-4.1,1.3-4.5,4.1c-1.1,6.8-1.5,13.6,2,20
	c3.1,5.8,1.6,9.5-4.8,11.4c-6.5,1.9-13.2,1.8-19.7-0.1c-1.1-0.3-2.1-0.8-3-1.3c-3.7-2.1-4.8-5.7-2.3-9c3.3-4.5,4.1-9.3,3.8-14.6
	c-0.1-3.4-1.4-6.3-3.3-9c-2.9-4.3-2.4-7.5,1.8-10.4c5.6-3.8,11.9-5.1,18.6-3.8c3.1,0.6,4.6,2.9,4,5.9c-0.4,2.1-1.4,4-2,6.1
	c-0.2,0.7,0.1,1.6,0.2,2.4c0.7-0.5,1.7-0.9,2.1-1.6c2-2.9,3.5-6.3,5.9-8.8c5.9-6,18.4-6,24.5-0.3c2.5,2.3,3.9,5.2,3.8,8.7
	c0,4.7-0.1,9.4,0,14.1c0.1,3.8,1,7.3,3.5,10.4c2.3,2.8,2,5.7-0.7,8.2c-3.6,3.3-8.1,4.2-12.8,4.5c-2.1,0.1-4.3-0.1-6.4-0.5
	c-5.1-1-7.8-4.8-7.6-10c0.1-3,0.3-6,0.5-9C314.3,68.5,314.2,68.5,314,68.5z"/>
<path d="M84.6,55.1c0.2,3.8,0.4,7.6,0.5,11.4c0.1,3.2,1.4,6,3.2,8.6c2.3,3.1,2.1,6.3-0.9,8.7c-5.5,4.4-11.9,5.4-18.7,3.4
	c-3.6-1.1-5-4.7-4-8.8c0.3-1.1,0.9-2.2,1.2-3.4c0.1-0.5-0.2-1.2-0.4-1.7c-0.6,0.2-1.3,0.2-1.8,0.6c-0.4,0.3-0.5,1-0.8,1.5
	C58.4,84.5,49,89.5,39.4,87.7c-6.6-1.2-10.5-5.7-10.6-12.4c-0.1-4.2-0.1-8.4,0-12.6c0.2-3.7-0.8-6.9-3-9.8c-3.9-5.4-1.2-9.3,3-11.6
	c5.3-2.9,11.1-3.9,17.1-2.7c4.6,0.9,6.9,3.9,6.8,8.7c-0.1,5.3-0.3,10.6-0.3,16c0,2.4,0.3,4.8,0.5,7.1c0,0.5,0.2,0.9,0.3,1.4
	c0.4,1.8,1.5,3,3.4,3.1c1.8,0.1,3.1-1,3.6-2.6c1.7-6.1,2.1-12.2-1.1-18c-0.4-0.8-1-1.5-1.4-2.2c-2.3-3.9-1.9-6.9,1.9-9.5
	c5.9-4.1,12.6-5.2,19.5-3.8c3.8,0.8,5.8,3.7,5.8,7.7c0,1.5,0,3-0.1,4.5c0,1.4,0,2.9,0,4.3C84.7,55.1,84.7,55.1,84.6,55.1z"/>
<path d="M377.4,88.2c-9.2-0.2-16.2-1.6-22.4-6.2c-12.2-9-12.8-33.3,5.3-41c9.8-4.2,19.8-4.2,29.7-0.3c10.5,4.1,15.6,13.2,14.7,25.2
	c-0.7,10-7.6,18-18,20.7C383.1,87.5,379.3,87.9,377.4,88.2z M379.1,64.1c0.2,0,0.5,0,0.7,0c-0.4-5.1-0.6-10.1-1.1-15.2
	c-0.2-2-1.2-3.7-3.6-3.6c-2.6,0-3.3,1.7-3.4,3.8c-0.2,5.9-0.4,11.7-0.4,17.6c0,3.6,0.4,7.1,0.8,10.7c0.3,2.1,1.3,3.8,3.9,3.7
	c2.4-0.1,3.1-1.9,3.1-3.8C379.2,72.8,379.1,68.4,379.1,64.1z"/>
<path d="M242,37.5c5.4,0.8,10.9,1.2,16.1,2.6c7.1,1.8,10.1,6.7,9.9,14c-0.1,4.5-0.3,9.1,0.4,13.5c0.4,2.7,2,5.3,3.4,7.7
	c1.8,3.1,1.7,5.6-0.9,8.1c-4.1,4-14.3,5.9-19.6,3.7c-3.5-1.5-4.8-4.8-3.6-9.5c0.3-1.1,0.8-2.1,1-3.2c0.1-0.6-0.2-1.2-0.4-1.8
	c-0.7,0.3-1.6,0.4-1.9,0.9c-0.7,1.1-1,2.5-1.5,3.7c-3.5,8-11.3,12.1-19.6,10.4c-5.2-1.1-8.7-4.2-10.1-9.4
	c-1.4-5.4,0.1-10.1,4.3-13.8c5.2-4.5,11.7-5.9,18.2-7c6.3-1.1,6.4-1,6.3-7.4c0-1.5,0-3.1-0.4-4.5c-0.3-0.9-1.2-2.2-2-2.2
	c-1.1-0.1-2.5,0.5-3.2,1.4c-0.9,1.1-1.2,2.7-1.7,4.1c-2.3,5.8-10.6,7.8-15.3,3.8c-3.4-2.9-3.5-8.1,0.4-10.4c3.2-1.9,7-2.9,10.6-3.7
	c3.1-0.7,6.3-0.5,9.5-0.8C241.9,37.8,242,37.6,242,37.5z M244.3,65.8c-0.3-1-0.5-3.2-0.9-3.2c-1.5-0.1-3.2,0.1-4.4,0.9
	c-2.5,1.7-3.3,4.3-2.9,7.3c0.2,1.7,0.8,3.3,2.9,3.5c2.1,0.3,3.6-0.8,4.2-2.7C243.7,69.8,243.9,67.9,244.3,65.8z"/>
<path d="M122,64c0.2,4.6,1.4,8.7,4,12.4c2.7,3.8,1.7,7.1-2.5,9.2c-5.5,2.7-11.4,2.9-17.2,2.2c-2.9-0.3-5.9-1.1-8.6-2.4
	c-3.9-1.8-5-5.7-2.4-9.1c3.3-4.4,4-9.2,3.8-14.4c-0.1-3.5-1.4-6.4-3.3-9.3c-2.8-4.3-2.3-7.5,1.9-10.4c5.6-3.7,11.8-5,18.4-3.8
	c3.3,0.6,4.8,2.7,4.1,6.1c-0.4,2.2-1.4,4.2-2,6.3c-0.2,0.7,0.1,1.5,0.2,2.2c0.7-0.4,1.8-0.7,2.1-1.3c1.8-4.7,4.6-8.5,8.9-11.1
	c3.8-2.3,7.9-3.2,12.3-2.1c3.1,0.8,5.2,2.8,6.2,5.8c1.2,3.6,1,7.1-0.7,10.4c-2.8,5.5-9.5,6.1-13.4,1.3c-0.7-0.9-1.4-1.9-2.2-2.8
	c-2.6-2.8-6.3-2.3-7.6,1.3C123,57.6,122.6,60.9,122,64z"/>
<path d="M454.5,58.5c-2.6-0.3-4.4-0.5-6.2-0.9c-3.8-0.8-6.9-2.8-7.7-6.8c-0.9-4.4-0.3-8.6,3.4-11.8c4.8-4.1,16.2-4.6,21.4-1
	c3.4,2.4,4,6,3.6,9.8c-0.4,4.2-2.7,7.3-6.7,8.8C459.7,57.6,456.7,58,454.5,58.5z"/>
<path d="M454.6,91.8c-2.6-0.3-4.3-0.4-6-0.8c-3.9-0.8-7.1-2.7-8-6.9c-0.9-4.5-0.3-8.8,3.5-11.9c4.9-4,16.1-4.5,21.3-0.9
	c3.4,2.4,4,5.9,3.6,9.7c-0.4,4.2-2.7,7.4-6.6,8.9C459.7,91,456.8,91.3,454.6,91.8z"/>
<path d="M491.7,60.3c0.2,11.3-5,22.9-13.6,33.1c-0.9,1-1.7,2.2-2.7,3c-0.5,0.5-1.4,0.5-2.2,0.7c0.2-0.7,0.2-1.5,0.6-2
	c3.1-4.2,6.6-8.2,9.3-12.7c10.4-17.3,10.4-41.5-9-59.1c-0.2-0.2-0.6-0.4-0.7-0.6c-0.3-0.6-0.4-1.3-0.7-2c0.7,0.1,1.6,0,2,0.4
	c2.5,2.6,5.1,5.2,7.4,8.1C488.9,37.8,491.7,46.6,491.7,60.3z"/>
<path class="st0" d="M177.2,66.1c0.3-3.5,0.6-6.9,1-10.4c0.1-1.1,0.5-2.3,1.1-3.1c0.6-0.8,1.7-1.7,2.5-1.6c1,0.1,2.4,1,2.6,1.8
	c0.7,2.2,1.2,4.6,1.2,7c0.1,4.8-0.1,9.7-0.3,14.5c0,1-0.3,2-0.6,3c-0.5,1.5-1.4,2.5-3.1,2.5c-1.8,0-2.9-1-3.2-2.6
	c-0.5-2.6-0.7-5.3-1-8c-0.1-1,0-2.1,0-3.1C177.4,66.1,177.3,66.1,177.2,66.1z"/>
<path class="st0" d="M379.1,64.1c0,4.4,0.1,8.7,0,13.1c-0.1,1.9-0.7,3.7-3.1,3.8c-2.6,0.1-3.6-1.6-3.9-3.7
	c-0.4-3.5-0.8-7.1-0.8-10.7c0-5.9,0.2-11.7,0.4-17.6c0.1-2,0.8-3.8,3.4-3.8c2.5,0,3.4,1.7,3.6,3.6c0.5,5,0.8,10.1,1.1,15.2
	C379.6,64.1,379.4,64.1,379.1,64.1z"/>
<path class="st0" d="M244.3,65.8c-0.4,2.1-0.6,4-1.2,5.8c-0.6,1.9-2.1,3-4.2,2.7c-2.1-0.2-2.7-1.8-2.9-3.5c-0.4-2.9,0.4-5.6,2.9-7.3
	c1.2-0.8,3-1,4.4-0.9C243.8,62.7,244,64.8,244.3,65.8z"/>
</svg>
