<svg id="Capa_1" data-name="Capa 1" xmlns="http://www.w3.org/2000/svg" viewBox="0 0 51.36 76.48"><defs><style>.cls-1{fill:#fff;}</style></defs><title>logo-face</title><path class="cls-1" d="M31,47a55.85,55.85,0,0,0,7.85-1.87,10,10,0,0,0,6.66-8.83c.4-3.79-.15-7.34-3.59-9.75-5.23-3.67-16.6-3.16-21.43,1-3.68,3.16-4.23,7.39-3.38,11.77.79,4.06,3.92,6,7.72,6.84C26.65,46.51,28.48,46.63,31,47Zm.1,33.33a53.5,53.5,0,0,0,7.77-1.86,10.09,10.09,0,0,0,6.64-8.86c.4-3.79-.17-7.34-3.61-9.74-5.18-3.61-16.36-3.17-21.26.86-3.83,3.16-4.41,7.46-3.52,11.93.83,4.17,4.08,6.05,8,6.87C26.84,79.87,28.59,80,31.14,80.31Zm37-31.56c.05-13.66-2.77-22.44-9.53-31.09a102.71,102.71,0,0,0-7.39-8.08c-.4-.41-1.35-.3-2-.42.21.67.38,1.36.66,2,.11.26.46.43.69.64C70,29.39,70,53.59,59.57,70.93c-2.68,4.47-6.22,8.42-9.3,12.65a6.16,6.16,0,0,0-.56,2,5.91,5.91,0,0,0,2.16-.7,28,28,0,0,0,2.66-3C63.17,71.65,68.37,60.09,68.15,48.75Z" transform="translate(-16.8 -9.16)"/><path d="M31,47c-2.56-.35-4.39-.47-6.16-.86-3.81-.84-6.93-2.78-7.72-6.84-.85-4.38-.31-8.61,3.38-11.77,4.83-4.14,16.2-4.65,21.43-1,3.44,2.41,4,6,3.59,9.75a10,10,0,0,1-6.66,8.83A55.85,55.85,0,0,1,31,47Z" transform="translate(-16.8 -9.16)"/><path d="M31.14,80.31c-2.55-.33-4.3-.44-6-.8-3.9-.82-7.14-2.7-8-6.87-.89-4.47-.31-8.77,3.52-11.93,4.9-4,16.07-4.48,21.26-.86,3.44,2.4,4,5.95,3.61,9.74a10.09,10.09,0,0,1-6.64,8.86A53.5,53.5,0,0,1,31.14,80.31Z" transform="translate(-16.8 -9.16)"/><path d="M68.15,48.75c.22,11.34-5,22.9-13.62,33.13a28,28,0,0,1-2.66,3,5.91,5.91,0,0,1-2.16.7,6.16,6.16,0,0,1,.56-2c3.08-4.24,6.62-8.18,9.3-12.65C70,53.59,70,29.39,50.55,11.8c-.24-.21-.58-.38-.69-.64-.28-.64-.45-1.33-.66-2,.69.13,1.64,0,2,.42a102.71,102.71,0,0,1,7.39,8.08C65.39,26.31,68.2,35.09,68.15,48.75Z" transform="translate(-16.8 -9.16)"/></svg>